HIERARCHY
ROOT pelvis
{
  OFFSET 0 100 0
  CHANNELS 6 Xposition Yposition Zposition Zrotation Xrotation Yrotation
  JOINT pelvis_right_femur
  {
    OFFSET -10.78128 -3.44521 -0.5502486
    CHANNELS 3 Zrotation Xrotation Yrotation
    JOINT right_femur_tibia
    {
      OFFSET -0.8047443 -44.0398 -0.1307829
      CHANNELS 3 Zrotation Xrotation Yrotation
      JOINT right_tibia_foot
      {
        OFFSET 3.006224 -47.83518 -5
        CHANNELS 3 Zrotation Xrotation Yrotation
        End Site
        {
          OFFSET 0 -5 15
        }
      }
    }
  }
  JOINT pelvis_left_femur
  {
    OFFSET 10.78128 -3.44521 -0.5502486
    CHANNELS 3 Zrotation Xrotation Yrotation
    JOINT left_femur_tibia
    {
      OFFSET 0.8047443 -44.0398 -0.1307829
      CHANNELS 3 Zrotation Xrotation Yrotation
      JOINT left_tibia_foot
      {
        OFFSET -4.370144 -48.10324 -4.275266
        CHANNELS 3 Zrotation Xrotation Yrotation
        End Site
        {
          OFFSET 0 -5 15
        }
      }
    }
  }
  JOINT pelvis_spine1
  {
    OFFSET 0 6.468898 -3.129235
    CHANNELS 3 Zrotation Xrotation Yrotation
    JOINT spine1
    {
      OFFSET 0 23.15396 4.99043
      CHANNELS 3 Zrotation Xrotation Yrotation
      JOINT spine2
      {
        OFFSET 0 20.79997 -5.064912
        CHANNELS 3 Zrotation Xrotation Yrotation
        JOINT neck
        {
          OFFSET 0 14.38658 9.616178
          CHANNELS 3 Zrotation Xrotation Yrotation
          End Site
          {
            OFFSET 0 20 0
          }
        }
      }
      JOINT right_manubrium
      {
        OFFSET -5.722621 16.35077 3.967754
        CHANNELS 3 Zrotation Xrotation Yrotation
        JOINT right_clavicle
        {
          OFFSET -13.16364 1.694482 -4.693211
          CHANNELS 3 Zrotation Xrotation Yrotation
          JOINT right_humerus
          {
            OFFSET -28.5034 -0.3100689 -2.792744
            CHANNELS 3 Zrotation Xrotation Yrotation
            JOINT right_radius
            {
              OFFSET -25.15693 0.02248979 -1.271978
              CHANNELS 3 Zrotation Xrotation Yrotation
              End Site
              {
                OFFSET -15 0 0
              }
            }
          }
        }
      }
      JOINT left_manubrium
      {
        OFFSET 5.722621 16.35077 3.967754
        CHANNELS 3 Zrotation Xrotation Yrotation
        JOINT left_clavicle
        {
          OFFSET 13.16364 1.694482 -4.693211
          CHANNELS 3 Zrotation Xrotation Yrotation
          JOINT left_humerus
          {
            OFFSET 29.39168 -1.063119 -2.237045
            CHANNELS 3 Zrotation Xrotation Yrotation
            JOINT left_radius
            {
              OFFSET 24.59957 -0.9528479 0.9047498
              CHANNELS 3 Zrotation Xrotation Yrotation
              End Site
              {
                OFFSET 15 -0 -0
              }
            }
          }
        }
      }
    }
  }
}
MOTION
Frames: 23
Frame Time: 0.0416666666667
0 103.5113 0 2.034047 -3.125945 0.1796286 1.88692 -11.03243 6.719784 -0 37.83292 -0 -5.763273 -15.32613 -4.724417 -7.055462 14.49144 -24.19853 -0 4.550578 -0 -0.1248187 -20.47003 23.32801 -4.234251 -3.921709 3.36053 1.960842 8.13459 -7.66847 0.6932472 24.16486 7.055653 3.387995 -21.97748 7.904774 5.914377 -19.22984 11.08696 87.71188 34.63412 -22.31768 -0 0 14.37559 -8.706361 7.669764 5.144327 3.821654 -18.65853 -3.921541 -99.36898 40.79102 27.52812 0 0 -20.75282 -12.01372 17.1775 27.64761
0.124926 103.0043 1.461277 1.820232 -2.692914 0.2921047 2.09836 -12.20999 6.645508 -0 38.06325 -0 -5.680279 -14.57767 -4.583478 -7.012007 14.10155 -23.90408 -0 4.844429 -0 -0.3073957 -20.58256 22.7629 -4.117021 -3.633709 3.347931 2.014737 8.078568 -7.72342 0.6553503 23.91111 7.237481 3.481074 -22.29521 8.023174 6.063053 -19.13859 11.1213 87.50636 35.01565 -22.12615 -0 0 14.51821 -8.819651 7.958808 5.328766 3.865054 -18.65632 -3.79334 -99.14256 40.37417 27.46704 0 0 -20.62628 -11.51832 16.91574 27.25975
0.2192365 102.53 3.318644 0.4507953 -1.132221 0.3287908 4.324007 -18.65405 7.019143 -0 34.14738 -0 -6.094896 -12.36559 -4.387834 -6.166585 14.57107 -23.60204 -0 8.332363 -0 -1.942094 -21.92641 20.92358 -3.033894 -2.322494 3.075322 2.448294 7.508877 -7.852165 0.9602285 23.10857 7.543035 3.75301 -23.83734 8.675239 5.754216 -18.67823 10.97168 87.36992 34.512 -22.00698 -0 0 14.84212 -7.4892 7.632598 4.887345 4.432086 -18.5546 -3.109475 -99.6962 39.9222 27.71921 0 0 -20.18226 -10.5616 16.24318 26.80224
0.3216199 101.9623 5.589404 -0.3361711 0.11046 0.4948933 5.448216 -23.32551 6.941022 -0 30.87235 -0 -6.120693 -10.5099 -4.161235 -5.684178 14.46671 -22.64419 -0 10.01129 -0 -2.755437 -22.64552 19.27567 -2.488246 -1.412246 2.913316 2.710571 7.220395 -8.039409 1.057939 22.4153 7.868523 3.978876 -24.71352 9.065642 5.70127 -18.19599 10.91564 87.21305 34.79343 -21.91685 -0 0 14.75525 -7.476715 8.107218 5.0557 4.905239 -18.80551 -2.67716 -98.51347 38.71459 26.4034 0 0 -20.53722 -8.844888 15.63419 25.20056
0.4534651 101.1731 8.440353 -0.8480072 1.168326 0.8572856 5.72312 -27.81873 6.022216 -0 27.23361 -0 -5.878451 -8.151084 -3.984548 -5.301949 14.14754 -20.71124 -0 10.51229 -0 -3.568888 -23.23444 17.04896 -2.198433 -0.4808271 2.668761 2.829101 7.0218 -8.284733 1.043427 21.75518 8.249517 4.170064 -25.02214 9.298757 5.651212 -17.43713 10.8308 87.16382 35.40407 -21.83415 -0 0 14.14377 -8.794313 9.31627 5.847751 5.435802 -19.40232 -2.461144 -95.63559 36.73657 23.30755 0 0 -21.7108 -6.472884 14.77441 22.68219
0.5945718 100.0019 11.97722 -1.021725 1.69712 1.401985 5.168112 -31.48047 4.441552 -0 22.78169 -0 -5.382189 -5.950823 -4.096158 -4.965704 14.21334 -18.1427 -0 10.2019 -0 -4.323053 -23.62672 14.77195 -2.130572 0.2688037 2.361269 2.808662 6.944564 -8.546997 1.016171 21.28876 8.482897 4.196101 -24.60686 9.333613 5.386875 -16.47976 10.67075 87.47137 35.69452 -22.00015 -0 0 12.95323 -11.07672 10.82694 6.987131 6.01209 -20.28691 -2.496085 -91.71498 34.20456 18.81964 0 0 -23.71503 -3.91371 13.72967 19.68468
0.7179979 98.34855 16.28105 -0.8468686 1.570578 2.075092 3.940322 -33.89226 2.481852 -0 17.68405 -0 -4.557478 -4.282626 -4.636734 -4.693628 14.93131 -15.16967 -0 9.54941 -0 -4.972061 -23.68062 12.7438 -2.238273 0.7167533 2.035114 2.671104 7.018399 -8.81003 1.022517 21.05167 8.474504 3.990507 -23.46666 9.180582 4.855999 -15.39765 10.4412 88.21379 35.35744 -22.51918 -0 0 11.25289 -14.02271 12.41392 8.306673 6.575161 -21.36632 -2.762921 -87.34718 31.16726 13.43635 0 0 -26.43092 -1.452623 12.47457 16.53309
0.8086737 96.23976 21.39681 -0.3926988 0.8101887 2.803045 2.504518 -34.72981 0.725834 -0 12.67246 -0 -3.39581 -3.433544 -5.637851 -4.530557 16.34514 -12.15578 -0 9.311638 -0 -5.477084 -23.19453 11.24155 -2.422615 0.7858633 1.7559 2.466932 7.255396 -9.047109 1.094544 21.01785 8.187001 3.543978 -21.79543 8.907138 4.111086 -14.32036 10.18543 89.31482 34.25587 -23.35277 -0 0 9.27977 -17.10353 13.85003 9.559645 7.017802 -22.44676 -3.181576 -83.2852 27.87623 7.982325 0 0 -29.44523 0.6186478 11.03854 13.64477
0.8704627 93.87916 27.30509 0.1487993 -0.3853353 3.494331 1.545536 -33.94521 -0.1093132 -0 8.900721 -0 -2.070249 -3.487621 -6.948594 -4.477997 18.19132 -9.597161 -0 10.51727 -0 -5.883793 -21.97981 10.4321 -2.517646 0.5018865 1.587175 2.271121 7.616387 -9.208826 1.248648 21.11068 7.662385 2.924015 -20.00933 8.626794 3.302669 -13.41107 9.96855 90.53102 32.48998 -24.28328 -0 0 7.424107 -19.56089 14.91121 10.41137 7.215166 -23.23791 -3.609451 -80.25558 24.92051 3.493286 0 0 -32.00592 2.045095 9.567806 11.48596
0.9155309 91.62833 33.87973 0.5011661 -1.676047 4.035381 1.592629 -31.81477 0.3883715 -0 7.517066 -0 -0.9615572 -4.231017 -8.225381 -4.441709 19.86257 -7.999741 -0 14.15344 -0 -6.325358 -19.96598 10.29695 -2.344772 0.0261437 1.569542 2.155288 8.00379 -9.226189 1.472594 21.241 7.029812 2.275592 -18.64445 8.445517 2.649633 -12.81011 9.85578 91.51938 30.46542 -24.9692 -0 0 6.110099 -20.6469 15.42311 10.56029 7.078973 -23.44713 -3.877551 -78.7325 23.04433 0.9377564 0 0 -33.19813 2.724547 8.332305 10.38746
0.9473503 89.88726 40.87393 0.4545413 -2.724497 4.316897 2.66661 -28.77862 1.982522 -0 8.960348 -0 -0.5074315 -5.210708 -9.06342 -4.281793 20.555 -7.624165 -0 20.64879 -0 -6.926634 -17.29973 10.64752 -1.829926 -0.3895748 1.710969 2.144482 8.304333 -9.035469 1.722621 21.36615 6.46005 1.784218 -18.09441 8.395549 2.355319 -12.56143 9.888305 91.98293 28.8007 -25.09826 -0 0 5.580991 -20.06454 15.32215 9.953269 6.612291 -22.95175 -3.871688 -78.85243 22.665 0.835324 0 0 -32.39432 2.782 7.631348 10.33928
0.9610744 88.92682 47.98021 0.03638151 -3.378018 4.290904 4.276842 -25.20127 3.914023 -0 12.46172 -0 -0.9374474 -6.001239 -9.207364 -3.963997 19.59483 -8.254791 -0 29.52254 -0 -7.67432 -14.34121 11.24994 -1.09542 -0.5306725 2.000742 2.194622 8.465609 -8.614634 1.944615 21.52062 6.073978 1.596738 -18.3535 8.413527 2.50171 -12.58846 10.06959 91.79818 28.03376 -24.53804 -0 0 5.7473 -18.25778 14.72294 8.891338 5.9218 -21.91983 -3.610372 -80.41926 23.51128 2.946193 0 0 -29.71272 2.502487 7.638087 10.96121
0.957228 88.78684 54.93621 -0.4782564 -3.742004 3.989097 5.736008 -21.24081 5.374966 -0 16.31971 -0 -2.110164 -6.474103 -8.673435 -3.613737 16.73221 -9.259701 -0 39.51074 -0 -8.397305 -11.52643 11.95328 -0.4167978 -0.3334856 2.436861 2.216294 8.534604 -7.999656 2.104061 21.78146 5.87794 1.741811 -19.01352 8.382543 3.001246 -12.75898 10.36788 91.03505 28.32651 -23.36456 -0 0 6.269564 -16.2052 13.93125 7.865532 5.173443 -20.736 -3.242131 -82.8726 24.80454 6.306778 0 0 -26.03139 2.165853 8.294167 11.7195
0.9412237 89.29183 61.58886 -0.7568707 -4.07456 3.480149 6.532821 -16.87111 5.914255 -0 18.84157 -0 -3.597859 -6.820127 -7.691808 -3.361825 12.16544 -9.965816 -0 49.00501 -0 -8.885666 -9.203155 12.72224 -0.05836698 0.1162173 3.031425 2.124614 8.609877 -7.259755 2.196578 22.20208 5.785676 2.119355 -19.53813 8.20036 3.644578 -12.99036 10.73077 89.86419 29.40829 -21.74449 -0 0 6.833639 -14.86268 13.30135 7.275634 4.523519 -19.76872 -2.950387 -85.40674 25.82239 9.711181 0 0 -22.46158 1.92229 9.341463 12.21619
0.913743 90.1339 67.88411 -0.6245491 -4.59965 2.834687 6.528855 -12.00215 5.530442 -0 19.18836 -0 -4.918828 -7.365617 -6.543664 -3.187828 6.33176 -9.99089 -0 56.38125 -0 -9.018848 -7.559544 13.5886 -0.123827 0.6753592 3.779345 1.874914 8.754234 -6.456138 2.235155 22.77128 5.695675 2.563344 -19.56579 7.833084 4.190788 -13.31134 11.1008 88.43084 30.74386 -19.77216 -0 0 7.390827 -14.73945 13.01433 7.303351 4.07096 -19.17445 -2.846555 -87.36807 26.25314 12.33815 0 0 -19.73402 1.777164 10.44955 12.32984
0.8794674 90.95626 73.8316 -0.1436883 -5.381286 2.123231 5.92719 -6.632485 4.542912 -0 17.60563 -0 -5.703752 -8.393053 -5.438906 -2.930468 -0.2717973 -9.291393 -0 60.12935 -0 -8.803617 -6.643201 14.59341 -0.5149021 1.223815 4.626087 1.471872 8.949643 -5.626361 2.234683 23.40492 5.550013 2.908812 -19.03742 7.339905 4.428974 -13.85347 11.42169 86.80141 31.72135 -17.40728 -0 0 8.210829 -15.81989 12.98034 7.948524 3.849477 -18.85919 -2.924124 -88.58273 26.13125 14.06957 0 0 -17.9488 1.640194 11.31012 12.18691
0.8703305 91.42215 79.49365 0.4422943 -6.306161 1.407885 5.108781 -0.9636279 3.430296 -0 15.1437 -0 -5.721431 -10.0405 -4.498558 -2.398678 -7.099614 -8.041651 -0 59.07526 -0 -8.342694 -6.394043 15.75796 -0.9848266 1.683405 5.472852 0.964193 9.119163 -4.801258 2.210672 23.95305 5.343822 3.020371 -18.15746 6.864337 4.204621 -14.78993 11.63534 85.03456 31.76632 -14.58173 -0 0 9.754271 -17.69445 12.92512 9.077683 3.842014 -18.56316 -3.075792 -89.3273 25.64392 15.3644 0 0 -16.70952 1.377531 11.6504 12.07212
0.9514919 91.28584 84.99655 0.8386142 -7.148905 0.7194639 4.434608 4.591358 2.687534 -0 13.13724 -0 -4.866536 -12.22289 -3.786038 -1.495698 -13.50504 -6.523547 -0 52.9186 -0 -7.786252 -6.653528 17.06972 -1.251539 1.997385 6.218247 0.430279 9.184781 -4.025787 2.189283 24.23454 5.104205 2.81214 -17.27086 6.584644 3.451583 -16.22941 11.68032 83.31445 30.4814 -11.40207 -0 0 12.40552 -19.76235 12.58159 10.44676 3.993593 -18.00248 -3.149553 -90.05822 25.01147 16.87751 0 0 -15.43749 0.8681469 11.25474 12.31033
1.191834 90.46593 90.52896 0.8599973 -7.682989 0.05484885 4.072637 9.536076 2.645776 -0 12.59148 -0 -3.224978 -14.55351 -3.31254 -0.3286615 -18.79857 -5.079902 -0 42.88418 -0 -7.279242 -7.178174 18.4542 -1.151896 2.111034 6.807574 -0.05066897 9.11937 -3.357057 2.209142 24.12358 4.870915 2.302926 -16.69833 6.621812 2.255491 -18.07928 11.51007 81.9585 27.91661 -8.247594 -0 0 16.11806 -21.49355 11.88208 11.76629 4.220111 -17.03619 -3.030129 -91.10339 24.40716 19.01894 0 0 -13.71752 0.09677544 10.09279 13.07855
1.620686 89.08457 96.2989 0.560368 -7.79209 -0.5913565 3.921132 13.48702 3.271608 -0 13.71382 -0 -1.175778 -16.34989 -3.024419 0.7605498 -22.46901 -4.066765 -0 31.82416 -0 -6.90278 -7.698913 19.74104 -0.7730275 1.981723 7.254071 -0.4353059 8.966215 -2.841939 2.297355 23.65469 4.695842 1.675706 -16.5756 6.945983 0.912165 -19.96984 11.14357 81.18199 24.80963 -5.621855 -0 0 20.17603 -22.69519 11.04117 12.827 4.426968 -15.79784 -2.717353 -92.43933 23.89679 21.63565 0 0 -11.56426 -0.7712731 8.485936 14.22296
2.215667 87.4309 102.4602 0.2142187 -7.52817 -1.198371 3.700852 16.28234 4.144614 -0 16.02342 -0 0.6809255 -16.85109 -2.833625 1.346561 -24.40283 -3.719049 -0 23.13003 -0 -6.639992 -8.021318 20.68703 -0.4264887 1.616549 7.609441 -0.7305583 8.822896 -2.501023 2.433808 23.03508 4.644319 1.227068 -16.79892 7.374726 -0.1255476 -21.38975 10.71057 80.87488 22.37117 -3.903183 -0 0 23.42013 -23.57629 10.44507 13.592 4.538024 -14.66109 -2.341447 -93.68581 23.46572 24.07747 0 0 -9.437346 -1.470074 7.045934 15.31597
2.933434 85.85247 109.0544 0.1072094 -7.080113 -1.723318 3.180612 17.93039 4.772215 -0 19.09421 -0 1.873062 -15.61654 -2.682624 1.193498 -24.86293 -4.006473 -0 18.84665 -0 -6.410046 -8.10504 21.09301 -0.4166387 1.096813 7.904193 -0.9664795 8.801318 -2.335116 2.547616 22.50151 4.769618 1.17202 -17.14834 7.702259 -0.4788591 -22.01722 10.40217 80.74926 21.52229 -3.211128 -0 0 24.97498 -24.48744 10.39243 14.16928 4.510132 -13.98836 -2.081651 -94.40072 23.10847 25.71194 0 0 -7.918725 -1.844657 6.25631 16.01224
3.743265 84.63707 116.0062 0.3212497 -6.667621 -2.110599 2.346613 18.49003 4.976705 -0 23.11656 -0 2.377007 -12.79237 -2.584704 0.3832965 -24.23258 -4.672574 -0 18.626 -0 -6.145358 -8.059245 20.92495 -0.8090598 0.5505421 8.117355 -1.156728 8.979374 -2.340069 2.561593 22.15193 5.076115 1.485956 -17.47423 7.843087 -0.0853596 -21.93196 10.33907 80.67692 22.2703 -3.414738 -0 0 24.83021 -25.58082 10.89979 14.6954 4.326754 -13.87779 -2.05205 -94.42933 22.85542 26.40477 0 0 -7.311502 -1.963939 6.091485 16.34359
